PathFileType	4	(X/Y/Z)	c:/Users/goper/Files/vsCode/490R/osim_files/C03/C03_SSW_03.trc
DataRate	CameraRate	NumFrames	NumMarkers	Units                	OrigDataRate	OrigDataStartFrame	OrigNumFrames
250.00	250.00	4	36	mm	250.0	1151	2301
                Frame#	Time	LPSIS			LASIS			LTH1			LTH2			LTH3			LTH4			LLFE			LMFE			LSH1			LSH2			LSH3			LSH4			LLMAL			LMMAL			LCAL			LMTP5			LTOE			LMTP1			RPSIS			RASIS			RTH1			RTH2			RTH3			RTH4			RLFE			RMFE			RSH1			RSH2			RSH3			RSH4			RLMAL			RMMAL			RCAL			RMTP1			RTOE			RMTP5		
		X1	Y1	Z1	X2	Y2	Z2	X3	Y3	Z3	X4	Y4	Z4	X5	Y5	Z5	X6	Y6	Z6	X7	Y7	Z7	X8	Y8	Z8	X9	Y9	Z9	X10	Y10	Z10	X11	Y11	Z11	X12	Y12	Z12	X13	Y13	Z13	X14	Y14	Z14	X15	Y15	Z15	X16	Y16	Z16	X17	Y17	Z17	X18	Y18	Z18	X19	Y19	Z19	X20	Y20	Z20	X21	Y21	Z21	X22	Y22	Z22	X23	Y23	Z23	X24	Y24	Z24	X25	Y25	Z25	X26	Y26	Z26	X27	Y27	Z27	X28	Y28	Z28	X29	Y29	Z29	X30	Y30	Z30	X31	Y31	Z31	X32	Y32	Z32	X33	Y33	Z33	X34	Y34	Z34	X35	Y35	Z35	X36	Y36	Z36

1151	4.60000	1304.80383	1050.82263	358.48444	1120.71436	988.80011	384.69492	1229.89636	635.08612	426.36533	1224.71228	574.49963	414.81030	1155.34473	637.54449	418.12939	1160.27478	578.12518	408.43774	1203.06494	492.14133	399.57446	1212.01428	493.38168	287.94409	1274.40991	311.49426	401.35831	1269.99158	265.21579	393.71414	1212.17944	313.83960	402.81949	1217.59412	265.84583	396.11011	1235.57507	104.54182	361.50809	1219.59338	120.15987	284.56989	1303.57922	70.21122	329.53369	1100.81299	53.44694	367.91614	1073.30103	70.53482	312.89600	1099.73596	59.19988	274.38315	1306.72717	1038.92395	245.62645	1139.84180	992.23175	181.57968	1162.30371	608.97668	174.55183	1141.22180	550.87494	186.15186	1110.78369	625.64087	138.11649	1081.19409	570.56952	143.81621	1075.05493	501.02740	157.33122	1054.50281	516.12683	271.02087	1261.32825	425.52502	171.68398	1291.08948	388.85614	175.39171	1223.77991	380.26953	149.82571	1257.03271	354.36407	155.56577	1366.87390	248.21370	184.29028	1343.95850	232.31650	260.80264	1436.93274	266.19788	232.12444	1304.01819	108.32018	249.06717	1277.33594	104.72290	208.17764	1341.62524	121.71705	151.49651
1152	4.60400	1299.97485	1051.19470	358.18301	0.00000	0.00000	0.00000	1227.80859	635.86273	426.60345	1222.67102	575.04291	414.92639	1152.48608	637.55853	418.07861	1156.89221	577.13403	406.61765	1201.65967	492.50391	399.52728	1210.13806	493.63080	287.91364	1273.36523	312.02344	401.29572	1268.40259	265.01108	393.39764	1211.07190	314.02362	402.82816	1216.74316	266.13226	396.14337	1233.55640	103.37401	360.98633	1219.18469	120.41281	284.58408	1303.57178	70.52784	329.57697	1100.77576	53.19393	367.78458	1073.12537	70.22227	312.70529	1099.66833	59.13426	274.42572	1301.54309	1039.38550	245.27773	1134.46814	993.03693	181.90462	1153.97717	610.16858	174.12007	1132.46106	552.30286	185.92351	1102.45496	627.45508	138.12329	1072.28357	572.62885	144.10240	1066.01929	503.19000	157.53242	1046.79346	518.37067	271.41757	1250.85889	424.60046	171.80768	1279.99695	387.81934	175.69641	1212.49622	380.00336	150.02063	1245.81995	353.34473	155.58282	1353.78992	245.85370	184.29231	1330.23401	229.66486	260.49121	1424.01917	262.35834	232.00378	1287.32263	106.80854	248.32712	1259.03418	103.82145	206.93098	1326.02271	119.79318	150.07542
1153	4.60800	1295.04053	1051.43762	357.91992	1111.23022	989.12549	385.32510	1225.00403	636.37067	426.49075	1219.83826	575.43823	414.67816	1149.54456	637.47125	417.90674	1154.40662	577.01306	406.52502	1199.91040	492.79202	399.50427	1208.31458	493.90335	287.86972	1273.02405	313.03769	401.17755	1267.59790	265.53796	393.31180	1210.06482	314.47244	402.75565	1215.89941	266.44449	396.09467	1233.86438	103.93324	361.31030	1218.80371	120.66242	284.58725	1303.52039	70.84765	329.59436	1100.64014	53.33132	367.95935	1072.99792	70.08192	312.73160	1099.39746	59.15448	274.77780	1296.29053	1039.75403	244.94812	1129.16016	993.86505	182.13391	1145.79456	611.32843	173.70630	1123.85193	553.74500	185.65456	1094.12415	629.20575	138.11516	1063.46936	574.66663	144.46295	1056.73535	505.35754	158.13527	1038.41406	520.71045	271.81039	1240.48572	423.53958	171.88904	1269.25684	386.24533	175.72401	1201.14771	379.68781	150.26341	1234.09802	352.42249	155.68219	1339.70776	241.56192	183.37961	1317.14990	227.39606	260.59537	1410.79810	257.72220	232.46529	1270.49390	104.62654	246.58560	0.00000	0.00000	0.00000	1309.60425	117.74786	149.22227
1154	4.61200	1290.18152	1051.65002	357.60989	1106.29260	989.21161	385.59885	1222.06641	636.82233	426.37341	1217.79126	575.96075	414.87167	1146.68115	637.39978	417.83728	1152.86206	578.09082	408.26035	1198.17981	492.90970	399.50714	1206.52454	494.13080	287.78024	1271.39539	313.12045	401.17569	1266.76721	266.08954	393.31400	1209.05688	314.74423	402.70377	1215.07605	266.72501	396.13049	1234.51929	105.25273	362.03833	1218.46631	120.96274	284.60059	1303.39014	71.06010	329.54022	1100.43054	53.17794	367.84631	1072.88794	69.91776	312.79105	1099.28845	59.08916	274.84607	1291.10742	1040.11096	244.57832	1123.81824	994.68933	182.33212	1137.74109	612.29785	173.17421	1115.31946	555.12915	185.39722	1085.93201	630.95959	138.12939	1054.67773	576.62006	144.83479	1047.52563	507.25848	158.57906	1028.78552	523.19080	272.57556	1229.64636	422.52133	172.27632	1257.89795	384.55185	175.68030	1189.91504	379.25446	150.46440	1222.32495	351.34772	155.89215	1326.56055	239.70718	184.01949	1303.17883	224.51151	260.30389	1397.58569	252.92940	232.37469	1253.74451	103.17994	245.82300	0.00000	0.00000	0.00000	1293.36548	115.61512	147.90880
